<svg width="78" height="31" viewBox="0 0 78 31" fill="none" xmlns="http://www.w3.org/2000/svg">
<path d="M13.3047 22.8281C13.3047 23.7917 13.1484 24.7031 12.8359 25.5625C12.5234 26.4219 12.0742 27.1771 11.4883 27.8281C10.9154 28.4661 10.2188 28.974 9.39844 29.3516C8.57812 29.7422 7.66667 29.9375 6.66406 29.9375C5.77865 29.9375 4.95833 29.7943 4.20312 29.5078C3.46094 29.2344 2.81641 28.8438 2.26953 28.3359C1.72266 27.8281 1.29297 27.2096 0.980469 26.4805C0.68099 25.7513 0.53125 24.9375 0.53125 24.0391C0.53125 23.8568 0.53776 23.6289 0.550781 23.3555C0.563802 23.082 0.602865 22.8216 0.667969 22.5742C0.746094 22.3138 0.85026 22.099 0.980469 21.9297C1.1237 21.7474 1.32552 21.6562 1.58594 21.6562C1.79427 21.6562 2.02214 21.7018 2.26953 21.793C2.52995 21.8711 2.77083 21.9818 2.99219 22.125C3.21354 22.2682 3.39583 22.444 3.53906 22.6523C3.69531 22.8477 3.77344 23.0625 3.77344 23.2969V24.4297C3.77344 25.3281 4.01432 26.0638 4.49609 26.6367C4.99089 27.1966 5.70052 27.4766 6.625 27.4766C7.27604 27.4766 7.83594 27.3268 8.30469 27.0273C8.77344 26.7279 9.15104 26.3438 9.4375 25.875C9.73698 25.4062 9.95182 24.8854 10.082 24.3125C10.2253 23.7266 10.2969 23.1536 10.2969 22.5938C10.2969 21.5 10.069 20.4388 9.61328 19.4102C9.17057 18.3815 8.61068 17.3789 7.93359 16.4023C7.25651 15.4128 6.52083 14.4427 5.72656 13.4922C4.93229 12.5417 4.19661 11.5977 3.51953 10.6602C2.84245 9.72266 2.27604 8.78516 1.82031 7.84766C1.3776 6.91016 1.15625 5.95312 1.15625 4.97656C1.15625 4.18229 1.3125 3.4987 1.625 2.92578C1.95052 2.33984 2.3737 1.86458 2.89453 1.5C3.42839 1.1224 4.02734 0.848958 4.69141 0.679688C5.36849 0.497396 6.0651 0.40625 6.78125 0.40625C7.65365 0.40625 8.4349 0.529948 9.125 0.777344C9.8151 1.02474 10.401 1.38281 10.8828 1.85156C11.3646 2.32031 11.7292 2.89974 11.9766 3.58984C12.237 4.26693 12.3672 5.04167 12.3672 5.91406C12.3672 6.04427 12.3607 6.20703 12.3477 6.40234C12.3346 6.59766 12.3021 6.79297 12.25 6.98828C12.1979 7.17057 12.1198 7.33333 12.0156 7.47656C11.9115 7.60677 11.7682 7.67188 11.5859 7.67188C11.3255 7.67188 11.0651 7.60677 10.8047 7.47656C10.5833 7.35938 10.401 7.2487 10.2578 7.14453C10.1276 7.02734 10.0234 6.90365 9.94531 6.77344C9.86719 6.63021 9.80859 6.47396 9.76953 6.30469C9.73047 6.13542 9.69792 5.92708 9.67188 5.67969C9.60677 5.21094 9.52214 4.78776 9.41797 4.41016C9.3138 4.03255 9.15755 3.71354 8.94922 3.45312C8.74089 3.19271 8.46745 2.99089 8.12891 2.84766C7.79036 2.70443 7.35417 2.63281 6.82031 2.63281C6.44271 2.63281 6.07812 2.67188 5.72656 2.75C5.38802 2.82812 5.08854 2.95833 4.82812 3.14062C4.58073 3.32292 4.37891 3.5638 4.22266 3.86328C4.07943 4.14974 4.00781 4.50781 4.00781 4.9375C4.00781 5.53646 4.13802 6.14844 4.39844 6.77344C4.67188 7.39844 5.02344 8.03646 5.45312 8.6875C5.89583 9.33854 6.39062 10.0091 6.9375 10.6992C7.4974 11.3763 8.07031 12.0794 8.65625 12.8086C9.24219 13.5378 9.80859 14.293 10.3555 15.0742C10.9154 15.8424 11.4102 16.6432 11.8398 17.4766C12.2826 18.3099 12.6341 19.1758 12.8945 20.0742C13.168 20.9596 13.3047 21.8776 13.3047 22.8281ZM23.8516 27.9453C23.8516 28.2057 23.7669 28.3945 23.5977 28.5117C23.4284 28.6289 23.2201 28.6875 22.9727 28.6875C22.8164 28.6875 22.6536 28.6745 22.4844 28.6484C22.3151 28.6094 22.1523 28.5703 21.9961 28.5312C21.7227 28.4531 21.5078 28.3555 21.3516 28.2383C21.2083 28.1211 21.0977 27.9909 21.0195 27.8477C20.9414 27.6914 20.8893 27.5221 20.8633 27.3398C20.8503 27.1576 20.8372 26.9557 20.8242 26.7344C20.8242 26.6693 20.8177 26.6107 20.8047 26.5586C20.8047 26.5065 20.8047 26.4544 20.8047 26.4023C20.7656 25.6602 20.7266 24.8984 20.6875 24.1172C20.6615 23.3359 20.6484 22.5742 20.6484 21.832C20.6484 21.4544 20.6484 21.0768 20.6484 20.6992C20.6615 20.3216 20.6745 19.944 20.6875 19.5664C20.7005 19.1888 20.707 18.8177 20.707 18.4531C20.7201 18.0755 20.7266 17.6979 20.7266 17.3203C20.7266 17.2422 20.7201 17.1706 20.707 17.1055C20.707 17.0273 20.7005 16.9492 20.6875 16.8711C20.349 17.3659 20.0495 17.9193 19.7891 18.5312C19.5417 19.1302 19.3203 19.7552 19.125 20.4062C18.9297 21.0443 18.7604 21.6888 18.6172 22.3398C18.487 22.9779 18.3763 23.5898 18.2852 24.1758L18.2266 24.5859C18.1615 25.0417 18.0964 25.5104 18.0312 25.9922C17.9661 26.4609 17.9336 26.9297 17.9336 27.3984C17.9336 27.5938 17.9661 27.8086 18.0312 28.043C18.0573 28.1471 18.0768 28.2513 18.0898 28.3555C18.1159 28.4466 18.1289 28.5638 18.1289 28.707C18.1289 29.0195 18.0508 29.2279 17.8945 29.332C17.7383 29.4492 17.5299 29.5078 17.2695 29.5078C17.1133 29.5078 16.9375 29.4948 16.7422 29.4688C16.5599 29.4427 16.3776 29.3971 16.1953 29.332C16.026 29.2799 15.8633 29.2083 15.707 29.1172C15.5508 29.026 15.4271 28.9089 15.3359 28.7656C15.2578 28.5964 15.1797 28.1471 15.1016 27.418C15.0365 26.6888 14.9714 25.7839 14.9062 24.7031C14.8542 23.6224 14.8021 22.4115 14.75 21.0703C14.6979 19.7161 14.6458 18.3294 14.5938 16.9102C14.5547 15.4909 14.5156 14.0846 14.4766 12.6914C14.4505 11.2982 14.4245 10.0156 14.3984 8.84375C14.3854 7.67188 14.3724 6.65625 14.3594 5.79688C14.3464 4.92448 14.3398 4.3125 14.3398 3.96094C14.3398 3.70052 14.3724 3.46615 14.4375 3.25781C14.5156 3.03646 14.724 2.92578 15.0625 2.92578C15.4141 2.92578 15.7461 3.01042 16.0586 3.17969C16.3711 3.33594 16.599 3.58333 16.7422 3.92188C16.7682 3.97396 16.7943 4.1888 16.8203 4.56641C16.8464 4.93099 16.8724 5.40625 16.8984 5.99219C16.9245 6.5651 16.9505 7.22917 16.9766 7.98438C17.0026 8.72656 17.0286 9.5013 17.0547 10.3086C17.0807 11.1029 17.1068 11.9036 17.1328 12.7109C17.1589 13.5182 17.1849 14.2734 17.2109 14.9766L17.3086 17.8672C17.4648 17.4635 17.6602 17.0404 17.8945 16.5977C18.1289 16.1549 18.3958 15.7513 18.6953 15.3867C19.0078 15.0221 19.3529 14.7227 19.7305 14.4883C20.1211 14.2539 20.5508 14.1367 21.0195 14.1367C21.5924 14.1367 22.0417 14.2865 22.3672 14.5859C22.6927 14.8854 22.9336 15.2565 23.0898 15.6992C23.2591 16.1419 23.3633 16.6172 23.4023 17.125C23.4414 17.6328 23.4609 18.0951 23.4609 18.5117C23.4609 18.7721 23.4544 19.026 23.4414 19.2734C23.4414 19.5208 23.4349 19.7682 23.4219 20.0156C23.4089 20.276 23.3958 20.5365 23.3828 20.7969C23.3828 21.0443 23.3828 21.2982 23.3828 21.5586C23.3828 22.457 23.4023 23.3815 23.4414 24.332C23.4805 25.2695 23.5781 26.194 23.7344 27.1055L23.7734 27.3789C23.7995 27.457 23.819 27.5482 23.832 27.6523C23.8451 27.7565 23.8516 27.8542 23.8516 27.9453ZM33.832 28.7461C33.832 29.0065 33.7669 29.1823 33.6367 29.2734C33.5065 29.3776 33.3242 29.4297 33.0898 29.4297C32.4779 29.4297 32.0352 29.2669 31.7617 28.9414C31.5013 28.6159 31.306 28.1862 31.1758 27.6523C31.1367 27.4701 31.0977 27.2878 31.0586 27.1055C31.0195 26.9102 30.987 26.7214 30.9609 26.5391C30.9349 26.3698 30.9089 26.2526 30.8828 26.1875C30.8568 26.1224 30.8307 25.9987 30.8047 25.8164C30.6484 26.194 30.4531 26.5911 30.2188 27.0078C29.9974 27.4115 29.737 27.7891 29.4375 28.1406C29.138 28.4792 28.7995 28.7591 28.4219 28.9805C28.0573 29.2018 27.6536 29.3125 27.2109 29.3125C26.7422 29.3125 26.3516 29.2018 26.0391 28.9805C25.7266 28.7461 25.4792 28.4596 25.2969 28.1211C25.1276 27.7695 25.0039 27.3854 24.9258 26.9688C24.8607 26.5521 24.8281 26.1549 24.8281 25.7773C24.8281 24.8919 24.9128 23.9349 25.082 22.9062C25.2643 21.8646 25.5117 20.8294 25.8242 19.8008C26.1367 18.7591 26.5013 17.763 26.918 16.8125C27.3346 15.849 27.7904 15.0091 28.2852 14.293V14.3125L28.4023 14.1367C28.5456 13.9414 28.7083 13.7331 28.8906 13.5117C29.0859 13.2773 29.3138 13.1602 29.5742 13.1602C29.8216 13.1602 30.0365 13.2708 30.2188 13.4922C30.401 13.7005 30.5312 13.9219 30.6094 14.1562C30.9479 14.2214 31.2214 14.306 31.4297 14.4102C31.638 14.5013 31.8008 14.6185 31.918 14.7617C32.0352 14.9049 32.1133 15.0742 32.1523 15.2695C32.1914 15.4518 32.2109 15.6536 32.2109 15.875C32.2109 15.9661 32.2109 16.0638 32.2109 16.168C32.2109 16.2721 32.2044 16.3763 32.1914 16.4805C32.1784 16.5846 32.1719 16.7083 32.1719 16.8516C32.1719 16.9948 32.1719 17.125 32.1719 17.2422C32.1719 17.3724 32.1914 17.5417 32.2305 17.75C32.2826 17.9583 32.3346 18.1732 32.3867 18.3945L32.5234 19.1172C32.5885 19.4948 32.6406 19.9245 32.6797 20.4062C32.7318 20.888 32.7904 21.3698 32.8555 21.8516C32.9076 22.3464 32.9596 22.8281 33.0117 23.2969C33.0638 23.7526 33.1159 24.1758 33.168 24.5664L33.6367 27.457L33.6953 27.7891C33.7214 27.9583 33.7474 28.1146 33.7734 28.2578C33.8125 28.401 33.832 28.5638 33.832 28.7461ZM29.3594 17.5156C29.3594 17.4896 29.3529 17.4505 29.3398 17.3984C29.3268 17.3333 29.3138 17.2682 29.3008 17.2031C29.0013 17.8411 28.7344 18.5378 28.5 19.293C28.2786 20.0352 28.0898 20.7969 27.9336 21.5781C27.7904 22.3464 27.6797 23.1211 27.6016 23.9023C27.5365 24.6706 27.5039 25.3997 27.5039 26.0898C27.5039 26.1549 27.5039 26.2135 27.5039 26.2656C27.5039 26.3177 27.5104 26.3698 27.5234 26.4219V26.4414C27.8359 25.9596 28.1029 25.3281 28.3242 24.5469C28.5586 23.7526 28.7539 22.9258 28.9102 22.0664C29.0664 21.194 29.1771 20.3542 29.2422 19.5469C29.3203 18.7266 29.3594 18.0495 29.3594 17.5156ZM36.918 29.3125C36.7227 29.3125 36.5078 29.2865 36.2734 29.2344C36.0521 29.1823 35.8372 29.0977 35.6289 28.9805C35.4336 28.8633 35.2643 28.7201 35.1211 28.5508C34.9909 28.3685 34.9258 28.1536 34.9258 27.9062C34.9258 27.5417 34.9388 27.1836 34.9648 26.832C35.0039 26.4674 35.043 26.1094 35.082 25.7578V25.7773L35.1992 24.4688C35.2383 24 35.2708 23.4857 35.2969 22.9258C35.3229 22.3659 35.3424 21.7995 35.3555 21.2266C35.3815 20.6406 35.401 20.0677 35.4141 19.5078C35.4271 18.9479 35.4336 18.4336 35.4336 17.9648C35.4336 17.6914 35.4271 17.418 35.4141 17.1445C35.4141 16.8581 35.4141 16.5716 35.4141 16.2852C35.401 16.0378 35.3945 15.7643 35.3945 15.4648C35.3945 15.1523 35.3945 14.8659 35.3945 14.6055C35.3945 14.332 35.4271 14.1107 35.4922 13.9414C35.5703 13.7591 35.7786 13.668 36.1172 13.668C36.4167 13.668 36.7292 13.7461 37.0547 13.9023C37.3932 14.0586 37.6276 14.2799 37.7578 14.5664H37.7383C37.8034 14.7096 37.849 14.944 37.875 15.2695C37.9141 15.582 37.9401 15.862 37.9531 16.1094C38.1745 15.7708 38.4219 15.4128 38.6953 15.0352C38.9818 14.6576 39.2878 14.3125 39.6133 14C39.9388 13.6745 40.2839 13.4076 40.6484 13.1992C41.013 12.9909 41.4036 12.8867 41.8203 12.8867C42.3672 12.8867 42.7839 13.0234 43.0703 13.2969C43.3568 13.5703 43.5651 13.9154 43.6953 14.332C43.8255 14.7357 43.8971 15.1719 43.9102 15.6406C43.9232 16.0964 43.9297 16.513 43.9297 16.8906V17.0469C43.9297 17.2031 43.9232 17.3594 43.9102 17.5156C43.9102 17.6589 43.8841 17.7956 43.832 17.9258C43.793 18.043 43.7148 18.1406 43.5977 18.2188C43.4935 18.2969 43.3438 18.3359 43.1484 18.3359C42.9401 18.3359 42.7188 18.3099 42.4844 18.2578C42.25 18.1927 42.0286 18.1016 41.8203 17.9844C41.625 17.8672 41.4557 17.724 41.3125 17.5547C41.1693 17.3724 41.0911 17.1641 41.0781 16.9297C41.0781 16.8255 41.0781 16.7214 41.0781 16.6172C41.0781 16.513 41.0846 16.4089 41.0977 16.3047C41.0977 16.2396 41.0977 16.1615 41.0977 16.0703C41.1107 15.9661 41.1172 15.8685 41.1172 15.7773C40.7005 16.194 40.3294 16.7083 40.0039 17.3203C39.6914 17.9323 39.4049 18.5833 39.1445 19.2734C38.8971 19.9635 38.6823 20.6602 38.5 21.3633C38.3177 22.0534 38.1615 22.6784 38.0312 23.2383V23.2969C37.9922 23.7005 37.9661 24.0977 37.9531 24.4883C37.9401 24.8789 37.9271 25.2826 37.9141 25.6992C37.901 26.168 37.8815 26.6432 37.8555 27.125C37.8424 27.6068 37.8099 28.0755 37.7578 28.5312C37.7318 28.7786 37.6536 28.9674 37.5234 29.0977C37.4062 29.2409 37.2044 29.3125 36.918 29.3125ZM52.543 28.7461C52.543 29.0065 52.4779 29.1823 52.3477 29.2734C52.2174 29.3776 52.0352 29.4297 51.8008 29.4297C51.1888 29.4297 50.7461 29.2669 50.4727 28.9414C50.2122 28.6159 50.0169 28.1862 49.8867 27.6523C49.8477 27.4701 49.8086 27.2878 49.7695 27.1055C49.7305 26.9102 49.6979 26.7214 49.6719 26.5391C49.6458 26.3698 49.6198 26.2526 49.5938 26.1875C49.5677 26.1224 49.5417 25.9987 49.5156 25.8164C49.3594 26.194 49.1641 26.5911 48.9297 27.0078C48.7083 27.4115 48.4479 27.7891 48.1484 28.1406C47.849 28.4792 47.5104 28.7591 47.1328 28.9805C46.7682 29.2018 46.3646 29.3125 45.9219 29.3125C45.4531 29.3125 45.0625 29.2018 44.75 28.9805C44.4375 28.7461 44.1901 28.4596 44.0078 28.1211C43.8385 27.7695 43.7148 27.3854 43.6367 26.9688C43.5716 26.5521 43.5391 26.1549 43.5391 25.7773C43.5391 24.8919 43.6237 23.9349 43.793 22.9062C43.9753 21.8646 44.2227 20.8294 44.5352 19.8008C44.8477 18.7591 45.2122 17.763 45.6289 16.8125C46.0456 15.849 46.5013 15.0091 46.9961 14.293V14.3125L47.1133 14.1367C47.2565 13.9414 47.4193 13.7331 47.6016 13.5117C47.7969 13.2773 48.0247 13.1602 48.2852 13.1602C48.5326 13.1602 48.7474 13.2708 48.9297 13.4922C49.112 13.7005 49.2422 13.9219 49.3203 14.1562C49.6589 14.2214 49.9323 14.306 50.1406 14.4102C50.349 14.5013 50.5117 14.6185 50.6289 14.7617C50.7461 14.9049 50.8242 15.0742 50.8633 15.2695C50.9023 15.4518 50.9219 15.6536 50.9219 15.875C50.9219 15.9661 50.9219 16.0638 50.9219 16.168C50.9219 16.2721 50.9154 16.3763 50.9023 16.4805C50.8893 16.5846 50.8828 16.7083 50.8828 16.8516C50.8828 16.9948 50.8828 17.125 50.8828 17.2422C50.8828 17.3724 50.9023 17.5417 50.9414 17.75C50.9935 17.9583 51.0456 18.1732 51.0977 18.3945L51.2344 19.1172C51.2995 19.4948 51.3516 19.9245 51.3906 20.4062C51.4427 20.888 51.5013 21.3698 51.5664 21.8516C51.6185 22.3464 51.6706 22.8281 51.7227 23.2969C51.7747 23.7526 51.8268 24.1758 51.8789 24.5664L52.3477 27.457L52.4062 27.7891C52.4323 27.9583 52.4583 28.1146 52.4844 28.2578C52.5234 28.401 52.543 28.5638 52.543 28.7461ZM48.0703 17.5156C48.0703 17.4896 48.0638 17.4505 48.0508 17.3984C48.0378 17.3333 48.0247 17.2682 48.0117 17.2031C47.7122 17.8411 47.4453 18.5378 47.2109 19.293C46.9896 20.0352 46.8008 20.7969 46.6445 21.5781C46.5013 22.3464 46.3906 23.1211 46.3125 23.9023C46.2474 24.6706 46.2148 25.3997 46.2148 26.0898C46.2148 26.1549 46.2148 26.2135 46.2148 26.2656C46.2148 26.3177 46.2214 26.3698 46.2344 26.4219V26.4414C46.5469 25.9596 46.8138 25.3281 47.0352 24.5469C47.2695 23.7526 47.4648 22.9258 47.6211 22.0664C47.7773 21.194 47.888 20.3542 47.9531 19.5469C48.0312 18.7266 48.0703 18.0495 48.0703 17.5156ZM62.7773 17.9648C62.7773 18.4987 62.7513 19.0911 62.6992 19.7422C62.6471 20.3802 62.569 21.0443 62.4648 21.7344C62.3607 22.4245 62.2174 23.1211 62.0352 23.8242C61.8659 24.5143 61.6576 25.1784 61.4102 25.8164C61.1628 26.4544 60.8698 27.0469 60.5312 27.5938C60.2057 28.1276 59.8346 28.5768 59.418 28.9414C59.1185 29.2018 58.7799 29.4102 58.4023 29.5664C58.0378 29.7357 57.6602 29.8203 57.2695 29.8203C57.1263 29.8203 56.9766 29.7943 56.8203 29.7422C56.6641 29.7031 56.5469 29.599 56.4688 29.4297C56.1823 29.4036 55.8958 29.3451 55.6094 29.2539C55.3359 29.1758 55.1081 28.9935 54.9258 28.707C54.8867 28.6159 54.8542 28.5052 54.8281 28.375C54.8021 28.2448 54.776 28.1081 54.75 27.9648C54.737 27.8997 54.724 27.8411 54.7109 27.7891C54.6979 27.724 54.6849 27.6654 54.6719 27.6133C54.2943 25.2695 54.0339 22.9258 53.8906 20.582C53.7604 18.2383 53.6953 15.875 53.6953 13.4922C53.6953 13.2839 53.6953 12.9193 53.6953 12.3984C53.6953 11.8776 53.6953 11.2852 53.6953 10.6211C53.7083 9.95703 53.7148 9.26042 53.7148 8.53125C53.7279 7.80208 53.7409 7.11849 53.7539 6.48047C53.7669 5.84245 53.7865 5.29557 53.8125 4.83984C53.8385 4.37109 53.8646 4.07161 53.8906 3.94141C53.9427 3.75911 54.0143 3.60938 54.1055 3.49219C54.1966 3.375 54.3529 3.31641 54.5742 3.31641C55.1862 3.31641 55.6224 3.51172 55.8828 3.90234C56.1562 4.27995 56.293 4.7487 56.293 5.30859V10.3281C56.293 10.9401 56.293 11.4935 56.293 11.9883C56.293 12.4701 56.293 12.9453 56.293 13.4141C56.306 13.8698 56.319 14.3451 56.332 14.8398C56.3451 15.3216 56.3646 15.862 56.3906 16.4609C56.5469 16.1094 56.7357 15.7643 56.957 15.4258C57.1914 15.0872 57.4518 14.7812 57.7383 14.5078C58.0247 14.2344 58.3438 14.013 58.6953 13.8438C59.0469 13.6745 59.4375 13.5898 59.8672 13.5898C60.4922 13.5898 60.9935 13.7266 61.3711 14C61.7617 14.2734 62.0547 14.625 62.25 15.0547C62.4583 15.4714 62.5951 15.9401 62.6602 16.4609C62.7383 16.9818 62.7773 17.4831 62.7773 17.9648ZM60.082 17.5156C60.082 17.2552 60.069 16.9688 60.043 16.6562C60.0299 16.3438 59.9518 16.0703 59.8086 15.8359C59.6914 15.9271 59.5872 16.0247 59.4961 16.1289C59.418 16.2331 59.3333 16.3503 59.2422 16.4805L59.2031 16.5391V16.5195C58.8385 17.1185 58.5391 17.8151 58.3047 18.6094C58.0833 19.4036 57.901 20.2305 57.7578 21.0898C57.6276 21.9362 57.5365 22.7826 57.4844 23.6289C57.4323 24.4622 57.4062 25.2174 57.4062 25.8945C57.4062 26.0378 57.4062 26.2526 57.4062 26.5391C57.4193 26.8125 57.4453 27.0404 57.4844 27.2227C57.9922 26.793 58.4089 26.168 58.7344 25.3477C59.0729 24.5143 59.3398 23.6224 59.5352 22.6719C59.7435 21.7083 59.8867 20.7643 59.9648 19.8398C60.043 18.9154 60.082 18.1406 60.082 17.5156ZM69.1641 29.5664C69.1641 29.7487 69.1185 29.8984 69.0273 30.0156C68.9362 30.1328 68.819 30.224 68.6758 30.2891C68.5456 30.3672 68.3958 30.4193 68.2266 30.4453C68.0703 30.4844 67.9271 30.5039 67.7969 30.5039C67.3411 30.5039 66.944 30.3737 66.6055 30.1133C66.2669 29.8529 65.974 29.5143 65.7266 29.0977C65.4792 28.694 65.2773 28.2318 65.1211 27.7109C64.9648 27.1771 64.8346 26.6497 64.7305 26.1289C64.6263 25.5951 64.5482 25.0872 64.4961 24.6055C64.444 24.1107 64.4049 23.6875 64.3789 23.3359C64.2617 22.125 64.1771 20.8945 64.125 19.6445C64.0859 18.3945 64.0664 17.1576 64.0664 15.9336C64.0664 12.5872 64.1836 9.27344 64.418 5.99219C64.418 5.9401 64.418 5.88151 64.418 5.81641C64.431 5.7513 64.4375 5.6862 64.4375 5.62109C64.4505 5.34766 64.4635 5.03516 64.4766 4.68359C64.4896 4.31901 64.5091 3.96094 64.5352 3.60938C64.5612 3.25781 64.5872 2.9388 64.6133 2.65234C64.6523 2.35286 64.6979 2.14453 64.75 2.02734V2.04688C64.8021 1.86458 64.8737 1.72786 64.9648 1.63672C65.056 1.54557 65.2122 1.5 65.4336 1.5C65.9023 1.5 66.2995 1.65625 66.625 1.96875C66.9505 2.28125 67.1133 2.67188 67.1133 3.14062C67.1133 3.24479 67.1068 3.34896 67.0938 3.45312C67.0938 3.54427 67.0872 3.63542 67.0742 3.72656C67.0612 3.81771 67.0482 3.90885 67.0352 4C67.0352 4.07812 67.0352 4.14974 67.0352 4.21484C66.9961 4.72266 66.9635 5.23047 66.9375 5.73828C66.9245 6.23307 66.9049 6.73438 66.8789 7.24219C66.8138 8.36198 66.7617 9.48177 66.7227 10.6016C66.6966 11.7083 66.6836 12.8281 66.6836 13.9609C66.6836 14.4427 66.6901 15.0742 66.7031 15.8555C66.7161 16.6367 66.7422 17.4896 66.7812 18.4141C66.8203 19.3255 66.8724 20.2695 66.9375 21.2461C67.0156 22.2227 67.1133 23.1536 67.2305 24.0391C67.3477 24.9245 67.4844 25.7253 67.6406 26.4414C67.8099 27.1576 68.0052 27.7109 68.2266 28.1016C68.3438 28.1536 68.4544 28.2383 68.5586 28.3555C68.6758 28.4596 68.7734 28.5833 68.8516 28.7266C68.9427 28.8568 69.0143 28.9935 69.0664 29.1367C69.1315 29.293 69.1641 29.4362 69.1641 29.5664ZM77.0352 25.4258C77.0352 25.8164 76.9245 26.2201 76.7031 26.6367C76.4948 27.0534 76.2214 27.4375 75.8828 27.7891C75.5443 28.1276 75.1536 28.4076 74.7109 28.6289C74.2812 28.8503 73.8516 28.9609 73.4219 28.9609C72.8099 28.9609 72.2826 28.8438 71.8398 28.6094C71.3971 28.362 71.013 28.0365 70.6875 27.6328C70.362 27.2161 70.0951 26.7474 69.8867 26.2266C69.6914 25.7057 69.5352 25.1719 69.418 24.625C69.3008 24.0651 69.2161 23.5117 69.1641 22.9648C69.125 22.4049 69.1055 21.8971 69.1055 21.4414C69.1055 21.0508 69.125 20.5885 69.1641 20.0547C69.2161 19.5208 69.2943 18.9674 69.3984 18.3945C69.5156 17.8216 69.6719 17.2552 69.8672 16.6953C70.0625 16.1354 70.3034 15.6341 70.5898 15.1914C70.8893 14.7487 71.2409 14.3906 71.6445 14.1172C72.0612 13.8438 72.5365 13.707 73.0703 13.707C73.487 13.707 73.8581 13.7917 74.1836 13.9609C74.5221 14.1302 74.8021 14.3581 75.0234 14.6445C75.2578 14.918 75.4336 15.237 75.5508 15.6016C75.681 15.9661 75.7461 16.3438 75.7461 16.7344C75.7461 17.2422 75.6289 17.7956 75.3945 18.3945C75.1602 18.9935 74.8542 19.5729 74.4766 20.1328C74.112 20.6927 73.6953 21.2005 73.2266 21.6562C72.7708 22.099 72.3151 22.4375 71.8594 22.6719C71.8854 22.9062 71.9375 23.2513 72.0156 23.707C72.0938 24.1497 72.1979 24.5924 72.3281 25.0352C72.4714 25.4779 72.6341 25.862 72.8164 26.1875C73.0117 26.513 73.2396 26.6758 73.5 26.6758C73.6302 26.6758 73.7409 26.6367 73.832 26.5586C73.9362 26.4805 74.0273 26.3763 74.1055 26.2461C74.1836 26.1159 74.2487 25.9727 74.3008 25.8164C74.3659 25.6602 74.4245 25.5104 74.4766 25.3672L74.5938 25.0938C74.6198 25.0547 74.6328 25.0286 74.6328 25.0156C74.6458 25.0026 74.6589 24.9831 74.6719 24.957C74.763 24.7878 74.8477 24.6315 74.9258 24.4883C75.0169 24.3451 75.1406 24.2214 75.2969 24.1172H75.2773C75.3294 24.0651 75.3815 24.0391 75.4336 24.0391C75.4987 24.026 75.5573 24.0195 75.6094 24.0195C75.7526 24.0195 75.9089 24.0651 76.0781 24.1562C76.2474 24.2474 76.4036 24.3646 76.5469 24.5078C76.6901 24.638 76.8073 24.7878 76.8984 24.957C76.9896 25.1133 77.0352 25.2695 77.0352 25.4258ZM73.168 16.8125C73.168 16.6823 73.1615 16.5456 73.1484 16.4023C73.1354 16.2591 73.1029 16.1354 73.0508 16.0312C72.8685 16.2526 72.7057 16.5195 72.5625 16.832C72.4323 17.1315 72.3216 17.4505 72.2305 17.7891C72.1393 18.1146 72.0612 18.4466 71.9961 18.7852C71.944 19.1237 71.9049 19.4362 71.8789 19.7227C72.2174 19.319 72.5169 18.8633 72.7773 18.3555C73.0378 17.8346 73.168 17.3203 73.168 16.8125Z" fill="black"/>
</svg>
